<svg width="21" height="17" fill="none" xmlns="http://www.w3.org/2000/svg"><path fill-rule="evenodd" clip-rule="evenodd" d="M10.5 16.786a.75.75 0 00.75-.75V5.645a2.872 2.872 0 10-1.5 0v10.392a.75.75 0 00.75.75zM9.128 2.892a1.372 1.372 0 112.744-.015 1.372 1.372 0 01-2.744.015zm9.005 13.894a.75.75 0 00.75-.75v-2.331a2.857 2.857 0 000-5.52V.77a.75.75 0 00-1.5 0v7.423a2.857 2.857 0 000 5.52v2.331a.75.75 0 00.75.742zm-1.372-5.84a1.373 1.373 0 112.746 0 1.373 1.373 0 01-2.746 0zm-14.644 5.09v-4.873a2.857 2.857 0 010-5.519V.77a.75.75 0 111.5 0v4.874a2.857 2.857 0 010 5.519v4.873a.75.75 0 11-1.5 0zM3.63 7.26a1.372 1.372 0 10-1.514 2.289 1.372 1.372 0 001.514-2.29z" fill="#fff"/></svg>