<svg width="53" height="53" fill="none" xmlns="http://www.w3.org/2000/svg"><circle cx="26.5" cy="26.5" r="26.5" fill="#fff"/><path d="M26.766 26.245a3.106 3.106 0 100-6.213 3.106 3.106 0 000 6.213zm-2.982-11.009c1.118-.472 2.162-.77 2.982-.77.82 0 1.864.298 2.982.77V3.582a23.414 23.414 0 00-2.982-.199c-1.019 0-2.013.075-2.982.199v11.655z" fill="#F3C03E"/><path d="M24.282 39.216c.124-.15.845-.845.845-.97v-2.385h-1.044v-2.907c-2.187-1.02-4.995-2.535-5.84-3.728-1.391-2.038-1.242-7.728 0-9.865.547-.945 1.814-2.038 3.28-2.957V3.979C11.136 6.364 3.383 15.658 3.383 26.766c0 12.698 10.089 23.01 22.688 23.384-3.603-2.212-4.548-7.803-1.79-10.934z" fill="#F3C03E"/><path d="M50.175 26.767c0-11.108-7.753-20.402-18.14-22.788v12.45c1.466.92 2.733 1.988 3.28 2.957 1.242 2.137 1.392 7.828 0 9.866-.795 1.143-3.38 2.56-5.517 3.578v3.032h-1.292v2.36c-1.019 1.616-1.74 3.604-1.292 5.517.398 1.69 1.665 2.858 3.454 2.883 2.36.025 3.752-1.466 4.225-3.628.074-.348.198-3.107.919-2.759.621.298.845 1.417.944 1.988.373 2.535-.323 4.821-1.714 6.436 8.821-3.33 15.133-11.878 15.133-21.892z" fill="#1A1A1B"/></svg>