<svg width="400" height="529" fill="none" xmlns="http://www.w3.org/2000/svg"><g clip-path="url(#clip0)"><path opacity=".6" fill-rule="evenodd" clip-rule="evenodd" d="M264.358 125.297c-9.271 0-21.07 3.371-33.712 8.709V2.247C241.602.843 252.839 0 264.358 0c11.518 0 22.755.843 33.712 2.247v131.759c-12.642-5.338-24.441-8.709-33.712-8.709zm35.118 98.047c0 19.394-15.722 35.117-35.117 35.117-19.394 0-35.116-15.723-35.116-35.117 0-19.395 15.722-35.117 35.116-35.117 19.395 0 35.117 15.722 35.117 35.117zM236.266 405.1c.405-.487 1.372-1.488 2.543-2.7 2.885-2.988 7.009-7.257 7.009-8.257v-26.969h-11.799v-32.87c-24.723-11.518-56.468-28.655-66.02-42.14-15.732-23.037-14.047-87.371 0-111.531 6.18-10.675 20.508-23.037 37.083-33.431V6.735C87.652 33.705 0 138.774 0 264.352c0 143.557 114.059 260.145 256.493 264.359-40.735-25.003-51.411-88.213-20.227-123.611zM323.918 6.742C441.349 33.712 529 138.78 529 264.359c0 113.216-71.357 209.858-171.089 247.503 15.732-18.261 23.598-44.107 19.384-72.762-1.123-6.461-3.652-19.104-10.675-22.475-6.663-3.216-8.816 17.054-9.841 26.698-.228 2.149-.4 3.769-.554 4.486-5.337 24.441-21.07 41.297-47.759 41.016-20.227-.28-34.555-13.484-39.049-32.588-5.057-21.632 3.09-44.107 14.608-62.367v-26.689h14.609v-34.274c24.16-11.519 53.377-27.532 62.367-40.455 15.733-23.036 14.047-87.37 0-111.531-6.18-10.956-20.508-23.036-37.083-33.431V6.742z" fill="url(#paint0_linear)"/></g><defs><linearGradient id="paint0_linear" x1="264.5" y1="0" x2="264.5" y2="528.711" gradientUnits="userSpaceOnUse"><stop stop-color="#DFA717"/><stop offset="1" stop-color="#C29623" stop-opacity="0"/></linearGradient><clipPath id="clip0"><path fill="#fff" d="M0 0h400v529H0z"/></clipPath></defs></svg>