<svg width="77" height="19" fill="none" xmlns="http://www.w3.org/2000/svg"><path d="M38.809 16.448h-2.82v2.049h2.82v-2.049zm5.523 2.224c4.027 0 4.436-1.931 4.436-2.809v-.024h-2.68c-.059.246-.316 1.16-2.083 1.16h-.036c-1.51 0-2.001-.843-2.001-1.686v-.082c0-.796.48-1.557 2.001-1.557h.036c1.79 0 2.024.89 2.083 1.136h2.68v-.036c0-.842-.491-2.75-4.424-2.75h-.667c-3.593 0-4.378 1.767-4.378 3.172v.234c0 1.404.796 3.242 4.39 3.242h.643zM55.027 15.7c0 .748-.901 1.497-2.294 1.497-.89 0-1.147-.374-1.147-.714v-.011c0-.363.281-.48.948-.586l2.493-.386v.2zm.07 1.93c.094.597.492.867.995.867h2.119v-1.71h-.34c-.269 0-.327-.128-.327-.315V14.06c0-.913-.234-2.036-3.886-2.036h-.644c-3.511 0-3.757 1.299-3.757 2.13v.023h2.423c.035-.21.093-.702 1.65-.702h.059c1.533 0 1.638.281 1.638.515 0 .2-.105.293-.398.328l-2.88.27c-1.884.175-2.644.725-2.644 1.884v.081c0 1.077.807 2.06 2.926 2.06h.152c1.85 0 2.645-.643 2.914-.983zm3.628.867h2.669l3.956-3.968v3.968h2.61v-6.298h-2.67l-3.956 3.968V12.2h-2.61v6.298zm4.846-6.813c1.93 0 2.481-1.276 2.481-1.872v-.024h-1.943c0 .14-.117.574-.714.574-.609 0-.726-.433-.726-.574h-1.99v.024c0 .596.387 1.872 2.517 1.872h.375zm7.829 6.813h2.61v-4.565h2.634v-1.733h-7.877v1.733H71.4v4.565zm-35.34-11.9h2.609V1.945H41.3V.179h-7.872v1.766h2.632v4.652zm10.903.179c3.884 0 4.504-1.837 4.504-3.316v-.215C51.467 1.789 50.8 0 46.963 0h-.83c-3.65 0-4.515 1.766-4.515 3.245v.215c0 1.479.877 3.316 4.526 3.316h.82zm-.41-1.73c-1.777 0-2.268-.906-2.268-1.658v-.06c0-.81.49-1.622 2.269-1.622h.012c1.754 0 2.257.823 2.257 1.622v.06c0 .752-.491 1.658-2.27 1.658zm5.614 1.551h2.609V1.945h3.298v4.652h2.609V.179h-8.516v6.418zM6.102 4.708v1.767h2.631V.302h-5.64C1.25.302.188 1.082.188 2.425v.114c0 1.045.684 1.733 1.924 1.974L0 6.475h3.01l1.876-1.767h1.216zm0-2.892v1.32h-2.29c-.814 0-.991-.333-.991-.631v-.046c0-.287.177-.643.98-.643h2.3zm5.191.894h20.78v2.108h-20.78V2.71z" fill="#000"/></svg>