<svg width="42" height="43" fill="none" xmlns="http://www.w3.org/2000/svg"><path d="M20.736 20.905a2.755 2.755 0 100-5.51 2.755 2.755 0 000 5.51z" fill="url(#paint0_linear)"/><path d="M18.092 11.143c.992-.419 1.918-.683 2.645-.683.727 0 1.652.264 2.644.683V.808a20.79 20.79 0 00-2.644-.177c-.904 0-1.785.066-2.645.177v10.335z" fill="url(#paint1_linear)"/><path d="M18.533 32.408c.11-.133.75-.75.75-.86v-2.115h-.926v-2.579c-1.94-.903-4.43-2.247-5.179-3.305-1.234-1.807-1.102-6.854 0-8.749.485-.837 1.609-1.807 2.909-2.622V1.159C6.875 3.275 0 11.518 0 21.367c0 11.26 8.947 20.406 20.12 20.737-3.196-1.962-4.033-6.92-1.587-9.696z" fill="url(#paint2_linear)"/><path d="M41.495 21.368c0-9.85-6.875-18.092-16.087-20.208V12.2c1.3.816 2.424 1.764 2.91 2.623 1.101 1.895 1.233 6.942 0 8.749-.706 1.013-2.998 2.27-4.893 3.173v2.688h-1.146v2.094c-.903 1.432-1.542 3.195-1.146 4.892.353 1.498 1.477 2.534 3.063 2.556 2.094.022 3.328-1.3 3.747-3.217.066-.309.176-2.755.815-2.446.55.264.75 1.256.837 1.763.33 2.247-.286 4.275-1.52 5.707 7.823-2.953 13.42-10.533 13.42-19.414z" fill="#1A1A1B"/><defs><linearGradient id="paint0_linear" x1="23.485" y1="18.154" x2="17.327" y2="18.154" gradientUnits="userSpaceOnUse"><stop offset="1"/><stop offset="1" stop-color="#FFD364"/></linearGradient><linearGradient id="paint1_linear" x1="23.375" y1="5.893" x2="17.463" y2="5.893" gradientUnits="userSpaceOnUse"><stop offset="1"/><stop offset="1" stop-color="#FFD364"/></linearGradient><linearGradient id="paint2_linear" x1="20.096" y1="21.656" x2="-2.392" y2="21.656" gradientUnits="userSpaceOnUse"><stop offset="1"/><stop offset="1" stop-color="#FFD364"/></linearGradient></defs></svg>