<svg width="39" height="39" fill="none" xmlns="http://www.w3.org/2000/svg"><path d="M19.323 38.647c10.655 0 19.323-8.669 19.323-19.324C38.646 8.668 29.978 0 19.323 0 8.67 0 .001 8.668.001 19.323c0 4.691 1.66 9.128 4.704 12.637L.41 36.198c-.87.859-.268 2.35.96 2.357l17.952.092zm-8.215-26.163h16.523a1.377 1.377 0 010 2.754H11.108a1.377 1.377 0 010-2.754zm0 5.508h16.523a1.377 1.377 0 010 2.754H11.108a1.377 1.377 0 010-2.754zm-1.377 6.885c0-.76.617-1.377 1.377-1.377h16.523a1.377 1.377 0 010 2.754H11.108c-.76 0-1.377-.617-1.377-1.377z" fill="#F5B91E"/></svg>