<svg width="25" height="25" fill="none" xmlns="http://www.w3.org/2000/svg"><path d="M12.5 0C5.594 0 0 5.594 0 12.5c0 2.75.875 5.281 2.375 7.344L.656 24.375l4.969-1.438A12.367 12.367 0 0012.5 25C19.406 25 25 19.406 25 12.5S19.406 0 12.5 0zm6.656 17.688L17.813 19c-1.407 1.406-5.125-.125-8.407-3.438-3.281-3.28-4.75-7-3.437-8.374l1.343-1.344c.5-.5 1.344-.5 1.875 0l1.97 1.968c.687.688.405 1.875-.5 2.157-.626.219-1.063.906-.845 1.531.344 1.469 2.25 3.281 3.657 3.625.625.156 1.344-.219 1.531-.844.281-.906 1.469-1.187 2.156-.5l1.969 1.969c.5.531.5 1.375.031 1.938z" fill="#000"/></svg>