<svg width="59" height="57" fill="none" xmlns="http://www.w3.org/2000/svg"><path d="M46.094 56.11c-3.559 0-6.453-2.798-6.453-6.235 0-3.437 2.894-6.234 6.453-6.234 3.558 0 6.453 2.797 6.453 6.234s-2.895 6.234-6.453 6.234zm0-8.016c-1.017 0-1.844.799-1.844 1.781 0 .982.827 1.781 1.844 1.781 1.017 0 1.843-.799 1.843-1.781 0-.982-.826-1.781-1.843-1.781zm-12.087-2.672h-9.015c-1.198 1.133-1.945 2.71-1.945 4.453 0 3.437 2.895 6.234 6.453 6.234 3.558 0 6.453-2.797 6.453-6.234 0-1.744-.747-3.32-1.946-4.453zM29.5 51.656c-1.017 0-1.844-.799-1.844-1.781 0-.982.827-1.781 1.844-1.781 1.017 0 1.844.799 1.844 1.781 0 .982-.827 1.781-1.844 1.781z" fill="#F0BC5E"/><path d="M22.945 45.422H13.93c-1.199 1.133-1.946 2.71-1.946 4.453 0 3.437 2.895 6.234 6.454 6.234 3.558 0 6.453-2.797 6.453-6.234 0-1.744-.747-3.32-1.946-4.453zm-4.508 6.234c-1.016 0-1.843-.799-1.843-1.781 0-.982.827-1.781 1.843-1.781 1.017 0 1.844.799 1.844 1.781 0 .982-.827 1.781-1.843 1.781zm11.42-11.578h-8.654v-7.125H27.4l2.458 7.125zm22.949 1.782h-9.478v-5.344h8.095l1.383 5.343z" fill="#F0BC5E"/><path d="M35.88 50.766a6.024 6.024 0 01-.558 1.78h4.95a6.027 6.027 0 01-.557-1.78h-3.836zm10.214-3.563c-1.525 0-2.766 1.199-2.766 2.672s1.241 2.672 2.766 2.672c1.524 0 2.765-1.199 2.765-2.672s-1.24-2.672-2.765-2.672zm0 3.563c-.508 0-.922-.4-.922-.891 0-.492.414-.89.922-.89s.922.398.922.89-.414.89-.922.89zM29.5 47.203c-1.525 0-2.766 1.199-2.766 2.672s1.241 2.672 2.766 2.672 2.766-1.199 2.766-2.672-1.241-2.672-2.766-2.672zm0 3.563c-.508 0-.922-.4-.922-.891 0-.492.414-.89.922-.89s.922.398.922.89-.414.89-.922.89zm-11.062-3.563c-1.525 0-2.766 1.199-2.766 2.672s1.24 2.672 2.765 2.672c1.525 0 2.766-1.199 2.766-2.672s-1.24-2.672-2.765-2.672zm0 3.563c-.508 0-.922-.4-.922-.891 0-.492.414-.89.922-.89s.921.398.921.89-.414.89-.922.89zM10.14 40.078h1.844v1.781h-1.843v-1.78zm3.688 0h1.844v1.781h-1.844v-1.78z" fill="#000"/><path d="M54.712 34.976c-.309-1.19-1.412-2.023-2.683-2.023H41.484c-1.017 0-1.843.799-1.843 1.781v7.125h-1.844c-1.017 0-1.844.8-1.844 1.782H34.11v-3.72l-3.964-10.53H18.82l15.29-14.772v2.303c-1.017 0-1.843.799-1.843 1.781v3.903c0 .68.39 1.29 1.018 1.593l2.67 1.289v2.274c-1.074.367-1.845 1.358-1.845 2.52 0 1.472 1.241 2.671 2.766 2.671s2.766-1.199 2.766-2.672h-1.844c0 .492-.414.89-.922.89s-.922-.398-.922-.89c0-.491.414-.89.922-.89h.922v-3.903l2.667-1.288c.239-.115.445-.276.613-.477a1.75 1.75 0 00.407-1.117v-3.903c0-.982-.827-1.781-1.843-1.781v-5.443c1.138-1.125 1.843-2.66 1.843-4.354 0-3.437-2.894-6.234-6.453-6.234-3.423 0-6.223 2.59-6.433 5.846L1.422 32.99l1.304 1.26 9.258-8.945 1.463 1.413-10.141 9.797h-.54c-1.017 0-1.844.799-1.844 1.78v1.782c0 .982.827 1.781 1.844 1.781h2.196l.965 1.864c-.76.221-1.318.895-1.318 1.699v1.781c0 .982.827 1.781 1.844 1.781h5.605c.094-.63.285-1.227.56-1.78H6.453v-1.782h29.5v1.781h-.633c.274.554.465 1.152.56 1.781h3.834a6.134 6.134 0 011.77-3.463V34.734H52.03c.423 0 .792.278.894.675l3.052 11.794h-4.06c.274.554.464 1.153.558 1.781h3.761v1.782h-3.76a6.024 6.024 0 01-.559 1.78h4.32c1.016 0 1.843-.798 1.843-1.78v-2.672l-3.366-13.118zm-43.268 1.54l2.384-2.303v2.303h-2.384zm4.228-4.085l1.844-1.781v5.866h-1.844V32.43zm15.501-20.32c.577.417 1.225.75 1.928.962l-9.132 8.824-1.462-1.413 8.666-8.373zm-9.97 7.114l-1.462-1.413 9.132-8.822c.221.679.564 1.305.997 1.861l-8.667 8.374zm1.462 3.931l-5.15 4.975-1.462-1.412 5.15-4.975 1.462 1.412zm16.975-.55l-2.765 1.336-2.766-1.336v-3.903h5.532l-.001 3.904zm-3.687-5.684v-3.634a6.56 6.56 0 001.844-.539v4.173h-1.844zm-.922-14.25c2.542 0 4.61 1.998 4.61 4.453s-2.068 4.453-4.61 4.453c-2.541 0-4.61-1.998-4.61-4.453s2.069-4.453 4.61-4.453zM13.288 24.047l5.15-4.975 1.462 1.412-5.15 4.975-1.462-1.412zm1.462 3.931l1.462 1.413-7.375 7.125H5.913l8.837-8.538zm17.516 15.663H7.945L6.1 40.078H2.766v-1.781h16.593v-7.125h9.496l3.41 9.063v3.406zm7.375 3.562h-1.844v-3.562h1.844v3.562z" fill="#000"/><path d="M35.031 9.797c1.525 0 2.766-1.199 2.766-2.672s-1.241-2.672-2.766-2.672c-1.524 0-2.765 1.199-2.765 2.672s1.24 2.672 2.765 2.672zm0-3.563c.508 0 .922.4.922.891 0 .492-.414.89-.922.89s-.922-.398-.922-.89.414-.89.922-.89zm1.844 16.032c.51 0 .922-.4.922-.891 0-.492-.413-.89-.922-.89-.51 0-.922.398-.922.89s.413.89.922.89z" fill="#000"/></svg>