<svg width="42" height="57" fill="none" xmlns="http://www.w3.org/2000/svg"><path d="M10.16 11.763c0-1.15.181-2.256.512-3.296l-.334-.2a2.413 2.413 0 00-2.952.364l-2.17 2.17c-.785.785-.934 1.998-.338 2.992a.642.642 0 01-.025.665 18.869 18.869 0 00-2.313 5.595.655.655 0 01-.503.5 2.41 2.41 0 00-1.83 2.342v3.07c0 1.11.753 2.074 1.882 2.356.22.055.393.242.45.487a18.886 18.886 0 002.313 5.595.701.701 0 01.107.332l.047.856h.233a14.54 14.54 0 013.41-3.675h-.025A14.404 14.404 0 016.54 24.43c0-3.445 1.204-6.61 3.213-9.095h.01a1.807 1.807 0 01.396-3.572zm29.784 8.774a.636.636 0 01-.45-.487 18.877 18.877 0 00-2.314-5.596.657.657 0 01-.001-.704 2.412 2.412 0 00-.363-2.952l-2.17-2.17a2.413 2.413 0 00-2.952-.363l-.334.2a10.85 10.85 0 01.513 3.297 1.81 1.81 0 01.397 3.572h.009a14.41 14.41 0 013.213 9.095c0 2.74-.76 5.3-2.082 7.485h-.027a14.54 14.54 0 013.41 3.675h.234l.047-.856a.702.702 0 01.106-.331 18.867 18.867 0 002.313-5.596.655.655 0 01.502-.5 2.412 2.412 0 001.83-2.343v-3.069c0-1.11-.752-2.075-1.881-2.357z" fill="#F0BC5E"/><path d="M17.397 19.905a.905.905 0 100-1.81.905.905 0 000 1.81zm7.239 0a.905.905 0 100-1.81.905.905 0 000 1.81zm-7.238 6.333h5.428a2.718 2.718 0 002.714-2.714h-1.81a.906.906 0 01-.904.905h-5.428v1.81z" fill="#000"/><path d="M34.565 31.701a15.36 15.36 0 001.833-7.273c0-3.148-.984-6.23-2.775-8.798a2.698 2.698 0 00.965-2.059 2.71 2.71 0 00-1.848-2.56C32.35 4.877 27.25 0 21.017 0 14.785 0 9.683 4.876 9.293 11.012a2.71 2.71 0 00-1.848 2.56c0 .826.38 1.56.966 2.058a15.422 15.422 0 00-2.775 8.798c0 2.55.636 5.046 1.833 7.273-3.33 2.824-5.452 7.03-5.452 11.727v.905c0 3.537 2.27 6.546 5.428 7.668v4.094h27.143v-4.094c3.158-1.12 5.428-4.13 5.428-7.668v-.904c0-4.698-2.122-8.904-5.451-11.728zm-1.46-1.1a15.294 15.294 0 00-5.603-2.276 5.41 5.41 0 001.657-3.896 3.623 3.623 0 003.62-3.62V17.67a13.554 13.554 0 01.326 12.932zm-3.04 20.066h-3.62c-.998 0-1.81-.812-1.81-1.81s.812-1.81 1.81-1.81h.905v-.904c0-.499.405-.905.905-.905h.155c.238 0 .472.097.64.265l1.014 1.014v4.15zm-4.525-5.305a3.619 3.619 0 00-2.714 3.495 3.614 3.614 0 002.714 3.49v1.939h-9.047V38h9.047v7.362zm-10.857-2.464L9.52 37.735a.89.89 0 01-.265-.64.89.89 0 01.265-.64.917.917 0 011.28 0l3.883 3.885v2.558zm-5.428-2.87l5.21 5.21h-3.4c-.999 0-1.81-.812-1.81-1.81v-3.4zm3.619-17.409c-.998 0-1.81-.812-1.81-1.81S11.876 19 12.874 19v3.619zm0-5.428c-.663 0-1.275.191-1.81.503v-1.408h1.81v.904zm1.81-.905H27.35v8.142a3.623 3.623 0 01-3.62 3.62h-5.428a3.623 3.623 0 01-3.619-3.62v-8.142zM29.158 19c.998 0 1.81.811 1.81 1.81 0 .997-.812 1.809-1.81 1.809V19zm1.81-1.306a3.582 3.582 0 00-1.81-.503v-.905h1.81v1.407zM21.017 34.02l1.736 2.17h-3.474l1.738-2.17zm0-2.728l-1.435-1.435h2.87l-1.435 1.435zm-1.213 1.346l-1.727 2.16-.432-4.318 2.16 2.158zm2.425 0l2.159-2.158-.432 4.317-1.727-2.159zm8.694-21.78H27.35v-3.62h-1.81v3.62h-1.81V2.194c3.891 1.106 6.817 4.517 7.193 8.662zM21.92 1.855v9.001h-1.81v-9c.3-.027.6-.046.906-.046.305 0 .606.019.904.046zm-3.619.339v8.662h-1.81V7.238h-1.809v3.62H11.11c.376-4.146 3.302-7.557 7.192-8.663zM10.16 12.667h21.715a.906.906 0 010 1.81H10.159a.906.906 0 010-1.81zM7.445 24.428a13.6 13.6 0 011.81-6.758v3.14a3.623 3.623 0 003.619 3.619c0 1.529.638 2.91 1.657 3.896a15.293 15.293 0 00-5.602 2.277 13.554 13.554 0 01-1.484-6.174zM3.826 44.334v-.904c0-6.934 5.229-12.66 11.95-13.465l.622 6.226h-1.715v1.591l-2.605-2.605c-1.025-1.026-2.812-1.026-3.838 0a2.698 2.698 0 00-.795 1.92v6.333a3.623 3.623 0 003.62 3.618h3.618v3.62H10.16a6.34 6.34 0 01-6.333-6.334zm5.429 8.09c.297.033.599.053.904.053h4.524v1.81H9.255v-1.863zm23.523 1.863H27.35v-1.81h4.524c.305 0 .607-.02.905-.053v1.863zm5.429-9.953a6.34 6.34 0 01-6.333 6.334V46.92c1.557-.404 2.714-1.81 2.714-3.49v-6.334h-1.81v6.334c0 .88-.632 1.616-1.467 1.776l-.982-.981a2.694 2.694 0 00-1.919-.795h-.155c-.318 0-.622.057-.905.158V36.19h-1.715l.623-6.226c6.72.805 11.949 6.531 11.949 13.465v.904z" fill="#000"/></svg>