<svg width="60" height="55" fill="none" xmlns="http://www.w3.org/2000/svg"><g clip-path="url(#clip0)"><path d="M56.564 1.873h-5.71v1.87h5.71c.525 0 .952.42.952.936v4.678H17.548V4.679c0-.516.427-.935.952-.935h5.71V1.873H18.5c-1.574 0-2.855 1.259-2.855 2.806v24.356h1.903V11.227h39.968v25.259a.944.944 0 01-.952.935H29.106v1.871h27.458c1.574 0 2.855-1.26 2.855-2.806V4.679c0-1.547-1.28-2.806-2.855-2.806z" fill="#000"/><path d="M53.704 33.677v-18.71H21.349V30.62h1.903v-2.555h5.71v3.742h-3.621v1.871h28.363zm-7.613-1.871v-3.742h5.71v3.742h-5.71zm-7.613-9.355h5.71v3.742h-5.71v-3.742zm-1.903 3.742h-5.71v-3.742h5.71v3.742zm9.516-3.742h5.71v3.742h-5.71v-3.742zm5.71-5.613v3.742h-5.71v-3.742h5.71zm-7.613 3.742h-5.71v-3.742h5.71v3.742zm-7.613-3.742v3.742h-5.71v-3.742h5.71zm-7.613 0v3.742h-5.71v-3.742h5.71zm-5.71 9.355v-3.742h5.71v3.742h-5.71zm7.613 1.871h5.71v3.742h-5.71v-3.742zm7.613 3.742v-3.742h5.71v3.742h-5.71z" fill="#000"/><path d="M49.91 5.613H25.168c-1.05 0-1.903-.84-1.903-1.871V1.87c0-1.031.853-1.87 1.903-1.87H49.91c1.05 0 1.903.84 1.903 1.871v1.87c0 1.033-.854 1.872-1.903 1.872zM21.349 52.801c-8.395 0-15.226-6.715-15.226-14.967 0-8.253 6.83-14.968 15.226-14.968 8.395 0 15.226 6.715 15.226 14.968 0 8.252-6.831 14.967-15.226 14.967z" fill="#F0BC5E"/><path d="M21.345 49.06c-6.297 0-11.42-5.036-11.42-11.226 0-6.19 5.123-11.226 11.42-11.226s11.42 5.035 11.42 11.226c0 6.19-5.123 11.225-11.42 11.225zm0-20.581c-5.247 0-9.516 4.196-9.516 9.355 0 5.158 4.269 9.354 9.516 9.354 5.248 0 9.516-4.196 9.516-9.354 0-5.159-4.268-9.355-9.516-9.355z" fill="#000"/><path d="M25.156 38.767h-4.758V32.22H22.3v4.677h2.855v1.871z" fill="#000"/></g><defs><clipPath id="clip0"><path fill="#fff" transform="translate(.42)" d="M0 0h59v54.514H0z"/></clipPath></defs></svg>