<svg width="56" height="54" fill="none" xmlns="http://www.w3.org/2000/svg"><g clip-path="url(#clip0)"><path d="M25.405 13.065H14.76v-8.71h10.645v8.71zm15.968 26.129H30.728v-8.71h10.645v8.71z" fill="#FFA64D"/><path d="M55.567 33.968V20.032h-4.624a23.267 23.267 0 00-1.682-3.986l3.27-3.211-7.61-7.47V0H11.213v5.365l-7.609 7.47 3.271 3.212a23.163 23.163 0 00-1.683 3.985H.567v13.936H5.19a23.295 23.295 0 001.682 3.986l-3.27 3.211 10.035 9.854 3.271-3.212a24.146 24.146 0 004.06 1.652V54h14.194v-4.54a24.213 24.213 0 004.06-1.652l3.27 3.212 10.036-9.854-3.27-3.211a23.222 23.222 0 001.682-3.986h4.626v-.001zM12.987 1.742h30.16v22.645h1.775v-5.166A17.912 17.912 0 0146.696 27c0 2.724-.614 5.362-1.774 7.78v-8.651h-1.774v15.677H12.986V1.742zM35.99 43.548a18.814 18.814 0 01-7.924 1.742c-2.774 0-5.462-.602-7.924-1.742H35.99zM11.212 34.78A17.923 17.923 0 019.438 27c0-2.724.614-5.363 1.774-7.78v15.56zm38.213-1.917a21.47 21.47 0 01-2.034 4.819l-.331.575 2.962 2.909-7.527 7.39-2.962-2.908-.587.324a22.333 22.333 0 01-4.907 1.998l-.65.178v4.111H22.744v-4.11l-.648-.179a22.315 22.315 0 01-4.908-1.997l-.586-.325-2.962 2.909-7.527-7.39 2.962-2.909-.33-.575a21.489 21.489 0 01-2.035-4.819l-.182-.637H2.341V21.774h4.187l.181-.637a21.493 21.493 0 012.034-4.819l.331-.575-2.962-2.908 5.1-5.007v7.897A19.64 19.64 0 007.664 27c0 4.055 1.231 7.945 3.548 11.276v5.272h5.37a20.525 20.525 0 0011.485 3.484 20.53 20.53 0 0011.485-3.484h5.37v-5.272A19.645 19.645 0 0048.47 27a19.64 19.64 0 00-3.548-11.275V7.828l5.1 5.007-2.962 2.909.33.575a21.495 21.495 0 012.035 4.82l.18.635h4.188v10.452h-4.187l-.181.636z" fill="#000"/><path d="M28.954 4.355H27.18v1.742h1.774V4.355zm12.419 0H30.728v1.742h10.645V4.355zm0 3.484H27.18V9.58h14.193V7.839zm-12.419 3.484H27.18v1.742h1.774v-1.742zm8.871 0h-7.097v1.742h7.097v-1.742zm3.548 0H39.6v1.742h1.774v-1.742zM28.954 30.484H27.18v1.742h1.774v-1.742zm-3.549 0H14.76v1.742h10.645v-1.742zm3.549 3.484H14.76v1.742h14.194v-1.742zm0 3.484H27.18v1.742h1.774v-1.742zm-3.548 0h-7.097v1.742h7.097v-1.742zm-8.872 0H14.76v1.742h1.774v-1.742zM36.938 17.42H19.196v1.741h17.742V17.42zm0 6.967H19.196v1.742h17.742v-1.742zm-3.548-3.484H19.195v1.742h14.193v-1.742zm3.548 0h-1.774v1.742h1.774v-1.742z" fill="#000"/></g><defs><clipPath id="clip0"><path fill="#fff" transform="translate(.567)" d="M0 0h55v54H0z"/></clipPath></defs></svg>