<svg width="22" height="25" fill="none" xmlns="http://www.w3.org/2000/svg"><path fill-rule="evenodd" clip-rule="evenodd" d="M13.63.572a10.985 10.985 0 014.309 2.164l-.002-.004a10.917 10.917 0 01-1.229 17.738 18.213 18.213 0 00-4.611 3.796 1.458 1.458 0 01-1.074.525 1.392 1.392 0 01-1.072-.454 16.69 16.69 0 00-4.461-3.743A10.924 10.924 0 018.81.46a10.985 10.985 0 014.82.112zm-2.627 20.86a22.76 22.76 0 014.278-3.285v-.003a8.186 8.186 0 00-4.308-15.166 8.59 8.59 0 00-1.647.162 8.194 8.194 0 00-2.458 15.101 19.658 19.658 0 014.135 3.19zM7.962 6.628a5.462 5.462 0 116.07 9.084 5.462 5.462 0 01-6.07-9.084zm1.517 6.813A2.731 2.731 0 1012.514 8.9a2.731 2.731 0 00-3.035 4.542z" fill="#000"/></svg>