<svg width="20" height="25" fill="none" xmlns="http://www.w3.org/2000/svg"><path fill-rule="evenodd" clip-rule="evenodd" d="M4.987 0h10.027a4.55 4.55 0 014.546 4.546v15.489a4.55 4.55 0 01-4.546 4.546H4.987a4.55 4.55 0 01-4.546-4.546V4.546A4.55 4.55 0 014.987 0zm11.309 21.317c.34-.34.531-.801.532-1.282V4.546a1.82 1.82 0 00-1.814-1.815H4.987a1.819 1.819 0 00-1.814 1.815v15.489a1.819 1.819 0 001.814 1.814h10.027a1.82 1.82 0 001.282-.532zm-7.66-3.564h2.73a1.366 1.366 0 010 2.73h-2.73a1.366 1.366 0 010-2.73z" fill="#000"/></svg>