<svg width="21" height="37" fill="none" xmlns="http://www.w3.org/2000/svg"><path d="M18.559 0H2.44C1.1 0 0 1.122 0 2.5v32.002C0 35.877 1.099 37 2.441 37h16.117C19.901 37 21 35.877 21 34.502V2.5C21 1.122 19.901 0 18.559 0zM7.922 1.801h5.157c.163 0 .294.136.294.303a.3.3 0 01-.295.303H7.922a.3.3 0 01-.296-.303c0-.167.135-.303.296-.303zM10.5 35.755c-.673 0-1.22-.56-1.22-1.252 0-.688.546-1.252 1.22-1.252.675 0 1.223.56 1.223 1.252 0 .691-.55 1.252-1.223 1.252zm8.8-3.378H1.7V3.964h17.602L19.3 32.377z" fill="#F5B91E"/></svg>